<svg width="2248" height="2229" viewBox="0 0 2248 2229" fill="none" xmlns="http://www.w3.org/2000/svg">
<path d="M1058.44 815.775V1018.79L560.064 531.876L725.585 370.114L977.006 615.996C970.26 633.747 966.838 652.542 966.908 671.482C966.717 732.717 1002.24 788.713 1058.44 815.775ZM1211.21 845.056L1288.68 920.762L1211.21 996.628V845.056ZM1685.26 533.493L1385.84 825.806L1285.03 727.615C1294.22 703.509 1297.29 677.586 1293.98 652.068C1283.56 574.777 1218.21 515.746 1138.55 511.656C1116.64 510.531 1094.72 513.833 1074.17 521.363L822.577 274.67L1035.77 66.9652C1058.62 44.5813 1089.64 32 1122 32C1154.35 32 1185.38 44.5813 1208.23 66.9652L1685.26 533.493Z" fill="#FF8080"/>
<path d="M959.462 1205.31L506.603 1647.9L57.2175 1212.91C4.35328 1159.16 5.0153 1074.01 58.7094 1021.06L522.161 568.112L959.462 996.951C1018.22 1054.53 1018.22 1147.73 959.462 1205.31Z" fill="#80B3FF"/>
<path d="M1212.04 1258.04V1443.91C1268.54 1476.76 1298.02 1540.6 1285.86 1603.74C1274.73 1665.3 1225.87 1713.76 1163.05 1725.55C1086.03 1741.99 1008.5 1699.98 981.98 1627.42C955.457 1554.87 988.194 1474.35 1058.44 1439.38V1233.94C1057.87 1227.98 1053.98 1222.82 1048.33 1220.52C1042.69 1218.21 1036.2 1219.15 1031.46 1222.94L556.921 1686.56L1045.2 2163.77C1092.57 2210.01 1169.31 2210.01 1216.68 2163.77L1677.31 1714.39L1212.04 1258.04Z" fill="#FFE680"/>
<path d="M2180.99 1236.36L1741.7 1665.85L1268.65 1203.53C1213.38 1149.46 1213.38 1061.86 1268.65 1007.79L1323.11 954.087L1443.77 1071.69C1417.12 1142.4 1444.41 1221.72 1509.35 1262.33C1574.31 1302.94 1659.42 1293.91 1713.95 1240.62C1768.47 1187.34 1777.71 1104.15 1736.15 1040.67C1694.6 977.191 1613.45 950.525 1541.09 976.571L1421.1 859.454L1727.96 559.699L2180.99 1002.61C2212.82 1033.55 2230.72 1075.62 2230.72 1119.49C2230.72 1163.36 2212.82 1205.43 2180.99 1236.36Z" fill="#8DD35F"/>
</svg>
