<svg width="1869" height="2048" viewBox="0 0 1869 2048" fill="none" xmlns="http://www.w3.org/2000/svg">
<path d="M1 856.469C1.65788 855.383 2.83318 854.814 2.8967 854.141C4.00862 842.353 4.77098 830.529 6.05628 818.762C7.1203 809.021 8.61282 799.318 10.1925 789.643C12.3162 776.636 14.5762 763.648 17.0248 750.699C18.8669 740.957 20.9666 731.258 23.1871 721.595C26.323 707.946 29.1227 694.185 33.0795 680.771C37.8052 664.75 43.0256 648.821 49.0788 633.259C56.5955 613.936 67.0482 596.082 78.9328 579.058C89.8111 563.475 102.207 549.202 116.197 536.437C136.842 517.6 159.908 502.226 185.503 490.855C204.897 482.239 224.9 475.282 245.931 472.096C260.993 469.815 276.202 468.41 291.386 467.073C300.609 466.261 309.909 466.046 319.175 466.037C390.47 465.974 461.764 466.027 533.51 466.46C533.668 467.634 533.557 468.552 533.054 469.125C526.598 476.472 519.974 483.675 513.612 491.101C500.866 505.976 488.279 520.987 475.582 535.904C465.249 548.043 454.824 560.102 444.491 572.241C433.838 584.755 423.287 597.357 412.619 609.858C401.949 622.364 391.135 634.747 380.482 647.268C366.282 663.957 352.22 680.765 338.017 697.453C325.641 711.995 313.108 726.403 300.723 740.937C288.125 755.721 275.665 770.622 263.066 785.405C250.68 799.938 238.162 814.359 225.763 828.882C212.828 844.033 199.977 859.256 187.068 874.429C176.846 886.444 166.586 898.425 156.356 910.432C145.482 923.195 134.637 935.984 123.754 948.739C113.3 960.992 102.779 973.188 92.3483 985.461C82.0278 997.604 71.8057 1009.83 61.5001 1021.99C50.5502 1034.9 39.6526 1047.87 28.5115 1060.62C25.471 1064.1 21.6369 1066.88 18.1669 1069.99C16.7821 1063.35 15.2347 1056.74 14.0484 1050.07C12.0026 1038.56 10.024 1027.04 8.31616 1015.48C6.97799 1006.42 5.95857 997.307 5.04316 988.194C4.17541 979.556 3.64438 970.884 2.89677 962.232C2.85015 961.693 2.20675 961.205 1.4205 960.846C0.999987 926.312 0.999987 891.625 1 856.469Z" fill="#4786B9"/>
<path d="M851.988 411.834C851.159 411.883 850.33 411.976 849.5 411.976C760.306 411.981 671.112 411.98 581.459 411.535C582.966 407.931 584.581 404.474 586.957 401.659C599.257 387.085 611.785 372.703 624.171 358.202C637.201 342.946 650.124 327.599 663.172 312.359C667.316 307.518 671.71 302.891 676.375 298.08C677.674 297.664 678.568 297.255 679.505 297.02C694.244 293.329 706.633 285.335 716.761 274.46C730.903 259.275 738.361 240.887 739.506 219.93C741.382 218.92 743.274 218.277 744.402 216.973C756.448 203.049 768.411 189.053 780.321 175.011C794.482 158.317 808.508 141.508 822.702 124.842C837.114 107.919 851.695 91.1408 866.136 74.2436C883.162 54.3232 900.135 34.3575 917.091 14.3777C920.813 9.99141 924.368 5.46296 928 1C942.688 1 957.375 1 972.531 1.00001C974.132 1.66336 975.233 2.8399 976.402 2.91141C989.416 3.70771 1002.47 3.98829 1015.45 5.09565C1030.32 6.36381 1045.14 8.24724 1059.97 10.0064C1076.23 11.9366 1092.57 13.4893 1108.71 16.1844C1130.58 19.8354 1152.37 24.1292 1173.24 31.9909C1173.7 32.1639 1174.21 32.2168 1174.58 32.7855C1173.13 34.1978 1171.52 34.9292 1170.47 36.1392C1164.47 43.0149 1158.58 49.9864 1152.69 56.9601C1140.5 71.4113 1128.4 85.9483 1116.12 100.332C1101.48 117.495 1086.61 134.473 1071.97 151.644C1055.72 170.706 1039.68 189.949 1023.44 209.014C1007.08 228.209 990.504 247.217 974.162 266.424C954.275 289.798 934.602 313.353 914.705 336.718C896.311 358.318 877.701 379.734 859.299 401.328C856.545 404.559 854.41 408.318 851.988 411.834Z" fill="#407EAF"/>
<path d="M675.989 298.166C671.71 302.891 667.316 307.518 663.172 312.359C650.124 327.599 637.2 342.946 624.171 358.202C611.784 372.703 599.257 387.085 586.956 401.659C584.581 404.474 582.966 407.931 580.994 411.463C543.667 411.88 506.346 411.929 469.024 411.964C468.552 411.964 468.079 411.79 467.002 411.579C467.002 409.86 467.002 408.09 467.002 406.32C466.997 345.334 466.403 284.341 467.227 223.367C467.659 191.397 472.298 159.724 485.418 130.1C491.224 116.99 499.396 105.248 508.926 94.2945C526.139 74.512 547.849 61.2234 571.107 50.4979C594.099 39.8948 618.315 32.2841 643.134 27.0694C664.212 22.6406 685.394 18.6457 706.631 15.0538C721.636 12.5159 736.785 10.7635 751.914 9.04525C766.118 7.43197 780.372 6.2295 794.619 5.02581C804.476 4.19301 814.361 3.69312 824.227 2.95991C825.262 2.88296 826.255 2.23358 827.134 1.42489C860.354 1 893.708 1 927.531 1C924.368 5.46296 920.813 9.99141 917.09 14.3777C900.134 34.3575 883.162 54.3232 866.136 74.2436C851.694 91.1408 837.113 107.919 822.701 124.842C808.508 141.508 794.481 158.317 780.321 175.011C768.411 189.053 756.448 203.049 744.401 216.973C743.274 218.277 741.382 218.92 739.445 219.472C738.237 211.761 738.258 204.238 736.455 197.181C732.541 181.861 724.974 168.397 713.12 157.611C694.711 140.861 673.545 132.882 648.323 135.869C626.128 138.498 608.421 149.091 594.872 165.981C579.517 185.122 573.914 207.491 577.999 231.947C581.654 253.826 592.532 271.586 610.312 284.52C629.941 298.798 652.097 303.242 675.989 298.166Z" fill="#4786B9"/>
<path d="M852.453 411.905C854.41 408.318 856.545 404.559 859.299 401.328C877.701 379.734 896.311 358.318 914.705 336.718C934.602 313.353 954.275 289.798 974.162 266.424C990.504 247.217 1007.08 228.209 1023.44 209.014C1039.68 189.949 1055.72 170.706 1071.97 151.644C1086.61 134.473 1101.48 117.495 1116.12 100.332C1128.4 85.9482 1140.5 71.4113 1152.69 56.9601C1158.58 49.9864 1164.47 43.0149 1170.47 36.1392C1171.52 34.9292 1173.13 34.1978 1174.79 33.0986C1182.55 35.8967 1190.14 38.5387 1197.42 41.8429C1219.38 51.8039 1239.92 64.2948 1258.12 80.0365C1269.81 90.1549 1280.16 101.89 1290.69 113.286C1302.84 126.428 1312 141.708 1319.25 157.942C1324.5 169.701 1328.26 182.124 1332.41 194.639C1330.56 196.132 1328.68 196.972 1327.46 198.387C1318.81 208.451 1310.33 218.668 1301.71 228.768C1289.43 243.163 1277.05 257.475 1264.77 271.87C1251.85 287.019 1239 302.239 1226.09 317.401C1215.98 329.28 1205.8 341.109 1195.68 352.978C1184.47 366.107 1173.3 379.262 1162.1 392.396C1151.87 404.395 1141.6 416.357 1131.4 428.38C1119.16 442.805 1107.02 457.318 1094.75 471.717C1084.1 484.225 1073.26 496.578 1062.6 509.092C1048.3 525.898 1034.14 542.831 1019.83 559.636C1009.18 572.148 998.326 584.489 987.675 597.003C971.435 616.086 955.342 635.295 939.094 654.371C924.78 671.177 910.28 687.824 895.972 704.634C879.731 723.717 863.674 742.957 847.421 762.029C831.058 781.231 814.52 800.285 798.117 819.453C782.795 837.359 767.469 855.263 752.373 873.358C750.52 875.58 750.079 878.979 748.984 881.833C726.163 881.885 703.322 881.359 680.525 882.125C646.468 883.27 613.551 890.053 582.146 903.853C559.92 913.619 539.082 925.652 520.086 940.645C505.181 952.408 491.543 965.574 479.171 980.134C462.454 999.808 448.638 1021.21 437.809 1044.57C428.547 1064.56 421.892 1085.35 417.87 1107.08C414.722 1124.08 413.903 1141.12 413.938 1158.33C414.064 1220.64 413.977 1282.95 413.971 1345.25C413.971 1347.24 413.971 1349.22 413.971 1351.97C411.936 1351.97 410.184 1351.97 408.431 1351.97C356.287 1351.98 304.133 1352.56 252.001 1351.76C224.637 1351.33 198.149 1345.1 173.017 1333.6C148.252 1322.26 126.736 1306.62 108.158 1286.07C109.47 1283.36 110.677 1281.16 112.273 1279.29C120.886 1269.18 129.64 1259.19 138.263 1249.08C151.194 1233.94 164.045 1218.72 176.954 1203.55C185.562 1193.44 194.236 1183.38 202.837 1173.26C213.157 1161.12 223.394 1148.91 233.733 1136.79C244.289 1124.41 254.959 1112.12 265.517 1099.74C278.227 1084.84 290.855 1069.87 303.55 1054.96C313.88 1042.82 324.272 1030.74 334.612 1018.61C345.488 1005.86 356.325 993.068 367.197 980.308C375.703 970.326 384.256 960.384 392.754 950.395C403.294 938.006 413.787 925.577 424.322 913.184C432.816 903.192 441.348 893.233 449.851 883.249C460.506 870.739 471.128 858.202 481.803 845.709C492.371 833.34 503.033 821.05 513.572 808.656C527.764 791.965 541.836 775.173 556.038 758.49C568.413 743.953 580.937 729.542 593.319 715.011C605.914 700.231 618.375 685.336 630.971 670.557C643.354 656.027 655.867 641.606 668.263 627.087C681.195 611.939 694.043 596.72 706.952 581.552C715.56 571.439 724.231 561.379 732.837 551.265C745.206 536.727 757.526 522.147 769.898 507.612C779.797 495.982 789.77 484.415 799.647 472.767C801.889 470.122 800.837 468.302 797.641 468.106C793.325 467.841 788.972 468.173 784.654 467.916C783.071 467.822 781.544 466.777 779.991 466.167C815.753 466.108 851.514 466.049 887.276 465.993C892.253 465.985 897.23 465.992 902.6 465.992C902.6 448.053 902.6 430.369 902.6 411.977C886.052 411.977 869.485 411.977 852.453 411.905Z" fill="#3A75A6"/>
<path d="M1351.96 801.882C1351.96 801.528 1352.12 801.26 1353.01 800.977C1354.92 800.213 1356.36 799.709 1357.55 798.858C1393.38 773.265 1429.14 747.596 1464.98 722.029C1497.58 698.775 1530.29 675.672 1562.88 652.421C1606.98 620.972 1651.04 589.476 1695.05 557.916C1701.23 553.49 1707.05 548.583 1713.04 543.899C1722.54 559.618 1733.09 574.813 1741.3 591.178C1753.83 616.116 1762.74 642.599 1769.95 669.574C1773.57 683.131 1776.67 696.83 1780.01 710.463C1780.31 711.706 1780.65 712.939 1780.54 714.603C1778.33 715.863 1776.37 716.452 1774.78 717.569C1756.71 730.308 1738.66 743.086 1720.66 755.935C1686.84 780.084 1653.06 804.304 1619.24 828.462C1592.45 847.597 1565.62 866.673 1538.83 885.795C1501.61 912.352 1464.41 938.936 1427.2 965.493C1398.1 986.257 1368.98 1006.99 1339.88 1027.75C1304.42 1053.05 1268.98 1078.38 1233.53 1103.68C1209.57 1120.77 1185.59 1137.83 1161.65 1154.94C1127.83 1179.1 1094.06 1203.32 1060.23 1227.46C1032.48 1247.26 1004.65 1266.94 976.908 1286.74C942.399 1311.37 907.957 1336.09 873.451 1360.72C848.552 1378.49 823.576 1396.16 798.673 1413.93C771.607 1433.24 744.598 1452.63 717.544 1471.96C693.194 1489.36 668.814 1506.71 644.453 1524.1C616.846 1543.8 589.243 1563.5 561.642 1583.21C541.347 1597.71 521.082 1612.24 500.755 1626.69C493.875 1631.58 486.847 1636.26 479.887 1641.04C473.989 1628.04 470.407 1614.34 469.13 1600.21C467.871 1586.27 467.175 1572.24 467.094 1558.25C466.844 1515.47 467.009 1472.7 467.478 1429.46C469.8 1428.43 471.876 1428.22 473.468 1427.23C477.557 1424.68 481.462 1421.83 485.385 1419.03C515.002 1397.86 544.585 1376.64 574.219 1355.5C599.254 1337.63 624.367 1319.88 649.402 1302.01C681.065 1279.42 712.664 1256.74 744.327 1234.14C769.632 1216.08 795.017 1198.14 820.322 1180.08C852.119 1157.38 883.858 1134.61 915.644 1111.9C939.857 1094.6 964.11 1077.36 988.333 1060.08C1023.38 1035.07 1058.4 1010.03 1093.46 985.037C1116.07 968.922 1138.74 952.891 1161.3 936.711C1162.24 936.034 1162.38 934.231 1162.89 932.953C1172.04 930.64 1181.31 928.69 1190.32 925.919C1200.93 922.659 1211.48 919.107 1221.75 914.927C1239.33 907.772 1255.62 898.193 1271.22 887.379C1290.51 874.003 1307.95 858.547 1322.88 840.479C1332.7 828.598 1341.58 815.94 1351.19 803.15C1351.7 802.434 1351.85 802.171 1351.96 801.882Z" fill="#FFE262"/>
<path d="M479.936 1641.43C486.848 1636.26 493.875 1631.58 500.756 1626.69C521.082 1612.24 541.347 1597.71 561.642 1583.21C589.243 1563.5 616.846 1543.8 644.454 1524.1C668.814 1506.71 693.194 1489.36 717.544 1471.96C744.598 1452.63 771.607 1433.24 798.673 1413.93C823.576 1396.16 848.553 1378.49 873.452 1360.72C907.957 1336.09 942.399 1311.37 976.908 1286.74C1004.65 1266.94 1032.48 1247.26 1060.23 1227.46C1094.06 1203.32 1127.83 1179.1 1161.65 1154.94C1185.59 1137.83 1209.57 1120.77 1233.53 1103.68C1268.98 1078.38 1304.42 1053.05 1339.88 1027.75C1368.98 1006.99 1398.1 986.257 1427.2 965.493C1464.41 938.936 1501.61 912.352 1538.83 885.795C1565.62 866.673 1592.45 847.597 1619.24 828.462C1653.06 804.304 1686.84 780.084 1720.66 755.935C1738.66 743.086 1756.71 730.308 1774.78 717.569C1776.37 716.452 1778.33 715.863 1780.47 715.012C1782.56 722.019 1784.45 729.006 1785.96 736.074C1788.71 748.888 1791.41 761.716 1793.78 774.603C1795.78 785.46 1797.41 796.391 1798.96 807.323C1800.77 820.056 1802.56 832.802 1803.91 845.59C1804.96 855.551 1805.39 865.58 1805.98 875.586C1806.71 887.744 1807.32 899.91 1807.58 912.6C1803.01 916.145 1798.88 919.194 1794.69 922.173C1764.47 943.668 1734.21 965.093 1704.03 986.646C1658.71 1019.02 1613.48 1051.53 1568.15 1083.89C1530.93 1110.46 1493.58 1136.85 1456.37 1163.42C1408.6 1197.52 1360.94 1231.77 1313.17 1265.88C1278.26 1290.8 1243.23 1315.57 1208.31 1340.49C1203.36 1344.02 1198.76 1348.04 1194 1351.83C1192 1351.89 1190 1351.99 1188.01 1351.99C1095.52 1352 1003.03 1352 910.546 1352C908.567 1352 906.589 1352 904.308 1352C904.308 1370.31 904.308 1388.37 904.308 1407.02C985.887 1407.02 1067.48 1407.02 1149.47 1407.43C1148.88 1408.9 1148.04 1410.18 1146.88 1411.02C1140.96 1415.3 1134.92 1419.43 1128.97 1423.69C1085.99 1454.44 1043.05 1485.25 1000.04 1515.95C965.144 1540.87 930.115 1565.6 895.22 1590.52C849.914 1622.87 804.719 1655.38 759.411 1687.73C719.917 1715.93 680.311 1743.97 640.852 1772.22C639.064 1773.5 638.237 1776.12 636.962 1778.12C615.787 1770 595.616 1759.89 576.246 1748.08C555.484 1735.42 536.354 1720.75 519.656 1703.07C507.218 1689.9 496.292 1675.53 488.07 1659.29C485.171 1653.57 482.668 1647.64 479.936 1641.43Z" fill="#FFDC51"/>
<path d="M749.449 881.905C750.079 878.979 750.52 875.58 752.373 873.358C767.469 855.263 782.795 837.359 798.117 819.453C814.52 800.285 831.058 781.231 847.421 762.029C863.674 742.957 879.731 723.717 895.972 704.634C910.28 687.824 924.78 671.177 939.094 654.371C955.342 635.295 971.435 616.086 987.675 597.003C998.326 584.489 1009.18 572.148 1019.83 559.636C1034.14 542.831 1048.3 525.898 1062.6 509.092C1073.26 496.578 1084.1 484.225 1094.75 471.717C1107.02 457.318 1119.16 442.805 1131.4 428.38C1141.6 416.357 1151.87 404.395 1162.1 392.396C1173.3 379.262 1184.47 366.107 1195.68 352.978C1205.8 341.109 1215.98 329.28 1226.09 317.401C1239 302.239 1251.85 287.019 1264.77 271.87C1277.05 257.475 1289.43 243.163 1301.71 228.768C1310.33 218.668 1318.81 208.451 1327.46 198.387C1328.68 196.972 1330.56 196.132 1332.5 195.008C1337.9 215.655 1339.11 236.649 1339.09 257.867C1338.93 394.031 1339.1 530.196 1338.87 666.361C1338.84 685.468 1335.38 704.246 1330.2 722.731C1322.36 750.66 1309.26 775.85 1291.58 798.653C1274.51 820.676 1253.79 838.672 1229.67 852.722C1212.95 862.457 1195.4 870.297 1176.6 874.82C1164.99 877.614 1153.11 879.902 1141.22 880.772C1124.68 881.985 1108.02 881.935 1091.41 881.947C977.577 882.027 863.745 881.981 749.449 881.905Z" fill="#326B9B"/>
<path d="M779.526 466.106C781.544 466.777 783.071 467.822 784.654 467.916C788.972 468.173 793.325 467.841 797.641 468.106C800.837 468.302 801.889 470.122 799.647 472.767C789.77 484.415 779.797 495.982 769.898 507.612C757.526 522.147 745.206 536.727 732.837 551.265C724.231 561.379 715.56 571.439 706.953 581.552C694.043 596.72 681.195 611.939 668.263 627.087C655.867 641.606 643.354 656.027 630.971 670.557C618.375 685.336 605.914 700.231 593.319 715.011C580.937 729.542 568.413 743.953 556.038 758.49C541.836 775.173 527.764 791.965 513.572 808.656C503.033 821.05 492.371 833.34 481.803 845.709C471.128 858.202 460.506 870.739 449.852 883.249C441.348 893.233 432.816 903.192 424.322 913.184C413.787 925.577 403.294 938.006 392.754 950.395C384.256 960.384 375.703 970.326 367.197 980.308C356.325 993.068 345.488 1005.86 334.612 1018.61C324.272 1030.74 313.88 1042.82 303.55 1054.96C290.855 1069.87 278.227 1084.84 265.517 1099.75C254.959 1112.12 244.289 1124.41 233.733 1136.79C223.394 1148.91 213.157 1161.12 202.837 1173.26C194.236 1183.38 185.562 1193.44 176.954 1203.55C164.045 1218.72 151.195 1233.94 138.263 1249.08C129.64 1259.19 120.886 1269.18 112.273 1279.29C110.677 1281.16 109.47 1283.36 108.022 1285.77C98.3086 1273.74 87.9867 1261.81 79.1564 1248.87C65.0869 1228.24 55.0705 1205.48 46.4917 1182.06C35.4564 1151.93 28.3594 1120.78 21.9446 1089.44C20.6726 1083.23 19.3315 1077.03 18.0947 1070.4C21.6371 1066.88 25.4712 1064.1 28.5117 1060.62C39.6528 1047.87 50.5504 1034.9 61.5003 1021.99C71.8059 1009.83 82.028 997.604 92.3485 985.461C102.779 973.188 113.3 960.992 123.754 948.739C134.637 935.984 145.482 923.195 156.356 910.432C166.586 898.425 176.846 886.444 187.068 874.429C199.977 859.256 212.828 844.033 225.763 828.882C238.162 814.359 250.68 799.938 263.067 785.405C275.665 770.622 288.125 755.721 300.723 740.937C313.108 726.403 325.641 711.995 338.018 697.453C352.22 680.765 366.282 663.957 380.482 647.268C391.135 634.747 401.949 622.364 412.619 609.858C423.287 597.357 433.838 584.755 444.491 572.241C454.824 560.102 465.249 548.043 475.582 535.904C488.279 520.987 500.866 505.976 513.612 491.101C519.975 483.675 526.598 476.472 533.054 469.125C533.557 468.552 533.668 467.634 533.974 466.522C534.982 466.107 535.977 465.994 536.971 465.994C617.668 466.006 698.365 466.026 779.526 466.106Z" fill="#407EAF"/>
<path d="M1162.45 932.977C1162.38 934.231 1162.24 936.034 1161.3 936.711C1138.74 952.891 1116.07 968.922 1093.46 985.037C1058.4 1010.03 1023.38 1035.07 988.333 1060.08C964.11 1077.36 939.857 1094.6 915.644 1111.9C883.858 1134.61 852.119 1157.38 820.322 1180.08C795.018 1198.14 769.632 1216.08 744.327 1234.14C712.664 1256.74 681.065 1279.42 649.402 1302.01C624.368 1319.88 599.254 1337.63 574.219 1355.5C544.585 1376.64 515.002 1397.86 485.385 1419.03C481.463 1421.83 477.557 1424.68 473.468 1427.23C471.876 1428.22 469.8 1428.43 467.555 1429C467.113 1427 467.013 1425 467.012 1423.01C467.002 1332.87 466.954 1242.72 467.04 1152.58C467.056 1135.21 469.354 1117.96 474.497 1101.45C479.318 1085.98 485.256 1070.72 492.234 1056.1C499.712 1040.42 509.863 1026.27 521.321 1013.05C535.721 996.431 551.923 981.976 570.409 970.156C592.336 956.136 615.957 946.217 641.553 940.891C659.346 937.189 677.24 935.944 695.352 935.954C839.315 936.036 983.277 936.071 1127.24 935.875C1138.83 935.859 1150.42 934.001 1162.45 932.977Z" fill="#FFE771"/>
<path d="M637.134 1778.45C638.237 1776.12 639.064 1773.5 640.852 1772.22C680.311 1743.97 719.917 1715.93 759.411 1687.73C804.719 1655.38 849.914 1622.87 895.22 1590.52C930.115 1565.6 965.144 1540.87 1000.04 1515.95C1043.05 1485.25 1085.99 1454.44 1128.97 1423.69C1134.92 1419.43 1140.96 1415.3 1146.88 1411.02C1148.04 1410.18 1148.88 1408.9 1149.93 1407.5C1157.16 1407.11 1164.32 1407 1171.48 1407C1225.31 1406.99 1279.14 1407 1332.97 1407C1334.78 1407 1336.59 1407 1339 1407C1339 1408.85 1339 1410.45 1339 1412.04C1339 1468.71 1339.38 1525.37 1338.81 1582.03C1338.59 1603.57 1333.89 1624.61 1325.68 1644.66C1319.52 1659.72 1311.85 1674.01 1301.65 1686.75C1295.49 1694.43 1289.23 1702.12 1282.27 1709.06C1265.67 1725.6 1246.82 1739.26 1226.6 1751.15C1197.14 1768.46 1165.76 1781.18 1133.25 1791.25C1103.27 1800.54 1072.96 1808.62 1042.01 1814.01C1025.68 1816.85 1009.33 1819.67 992.905 1821.9C979.446 1823.73 965.892 1825.29 952.332 1825.87C926.004 1826.99 899.632 1828.11 873.3 1827.73C855.32 1827.47 837.278 1825.37 819.439 1822.85C793.231 1819.14 767.009 1815.14 741.114 1809.73C719.66 1805.25 698.566 1798.9 677.513 1792.7C663.924 1788.69 650.696 1783.46 637.134 1778.45ZM1224.95 1573.77C1219.85 1560.86 1212.82 1549.37 1202.45 1539.79C1187.4 1525.9 1169.6 1518.88 1149.53 1518.26C1141.42 1518.01 1133.08 1520.11 1125.09 1522.1C1107.78 1526.4 1094.41 1536.81 1083.7 1550.77C1071.4 1566.79 1066.12 1584.97 1066.93 1605.14C1067.41 1616.9 1070.63 1627.87 1075.83 1638.18C1083.01 1652.44 1093.53 1663.71 1107.39 1671.99C1125.42 1682.75 1144.82 1685.99 1164.91 1681.37C1192.68 1674.99 1212.22 1658.04 1223.09 1631.51C1230.76 1612.8 1230.98 1593.79 1224.95 1573.77Z" fill="#FFD53E"/>
<path d="M1194.46 1351.91C1198.76 1348.04 1203.36 1344.02 1208.31 1340.49C1243.23 1315.57 1278.26 1290.8 1313.17 1265.88C1360.94 1231.77 1408.6 1197.52 1456.37 1163.42C1493.58 1136.85 1530.93 1110.46 1568.15 1083.89C1613.48 1051.53 1658.71 1019.02 1704.03 986.646C1734.21 965.093 1764.47 943.668 1794.69 922.173C1798.88 919.194 1803.01 916.145 1807.5 913.062C1807.89 925.655 1808.48 938.34 1807.87 950.967C1807.06 968.017 1805.88 985.088 1803.84 1002.03C1801.93 1017.81 1799.38 1033.58 1795.88 1049.08C1790.47 1073 1785.01 1097 1777.74 1120.4C1769.42 1147.17 1759.74 1173.57 1749.48 1199.67C1739.83 1224.2 1727.83 1247.69 1713.09 1269.7C1702.96 1284.83 1691.22 1298.59 1677.69 1310.66C1657.37 1328.77 1633.52 1340.62 1607.1 1346.79C1596.83 1349.19 1586.14 1350 1575.59 1350.89C1565.88 1351.71 1556.09 1351.95 1546.33 1351.95C1429.2 1352.02 1312.06 1351.99 1194.46 1351.91Z" fill="#FFD642"/>
<path d="M1712.91 543.583C1707.05 548.583 1701.23 553.49 1695.05 557.916C1651.04 589.476 1606.98 620.972 1562.88 652.421C1530.29 675.672 1497.58 698.775 1464.98 722.029C1429.14 747.596 1393.38 773.265 1357.55 798.858C1356.36 799.709 1354.92 800.213 1353.24 800.919C1355.25 796.384 1357.55 791.773 1359.99 787.239C1372.87 763.348 1381.82 738.105 1387.1 711.459C1390.6 693.822 1392.1 676.115 1392.06 658.161C1391.91 596.167 1392 534.173 1392 472.179C1392 470.353 1392 468.527 1392 466.253C1393.52 466.164 1394.95 466.009 1396.37 466.009C1450.7 465.997 1505.03 465.575 1559.35 466.162C1590.32 466.496 1620.55 472.064 1648.04 487.205C1659.6 493.574 1670.3 501.636 1680.91 509.583C1693.4 518.945 1703.21 531.042 1712.91 543.583Z" fill="#FFE770"/>
<path d="M1351.71 801.971C1351.85 802.171 1351.7 802.434 1351.34 802.823C1351.26 802.671 1351.36 802.365 1351.71 801.971Z" fill="#FFE770"/>
</svg>
