<svg width="1200" height="1283" viewBox="0 0 1200 1283" fill="none" xmlns="http://www.w3.org/2000/svg">
<g clip-path="url(#clip0_27_241)">
<path d="M687.556 1.00001C689.212 2.31359 690.192 4.02981 691.671 4.88052C714.997 18.3024 738.431 31.5365 761.749 44.9713C783.953 57.7641 806.016 70.8017 828.208 83.6159C846.727 94.3093 865.385 104.762 883.905 115.455C903.966 127.037 923.911 138.82 943.958 150.426C959.961 159.691 976.064 168.783 992.08 178.024C1008.37 187.421 1024.59 196.933 1040.86 206.344C1055.04 214.538 1069.25 222.665 1083.45 230.817C1099.75 240.174 1116.07 249.497 1132.34 258.89C1148.49 268.211 1164.61 277.599 1180.73 286.962C1186.06 290.051 1191.37 293.155 1196.41 296.676C1186.19 302.833 1176.25 308.566 1166.3 314.3C1127.51 336.663 1088.73 359.057 1049.91 381.364C1041.7 386.078 1033.32 390.474 1024.71 394.854C1006.1 384.085 987.81 373.452 969.488 362.875C883.356 313.155 797.226 263.432 711.06 213.77C702.145 208.631 693.001 203.887 683.611 199.021C681.474 199.968 679.634 200.76 677.912 201.755C661.906 210.992 645.93 220.279 629.929 229.523C592.017 251.426 554.098 273.316 516.18 295.208C483.018 314.353 449.858 333.501 416.69 352.633C380.637 373.428 344.572 394.202 308.518 414.995C277.078 433.125 245.633 451.246 214.217 469.416C200.104 477.579 186.054 485.853 171.672 493.912C121.848 465.137 72.3395 436.505 22.7942 407.937C15.6203 403.8 8.26914 399.971 1 396C1 395.556 1 395.111 1.36833 394.329C4.67461 392.316 7.62333 390.66 10.5487 388.963C26.5365 379.692 42.4863 370.355 58.5121 361.149C72.9899 352.833 87.5978 344.743 102.059 336.398C119.735 326.198 137.279 315.77 154.952 305.565C169.563 297.129 184.322 288.951 198.935 280.521C215.085 271.205 231.105 261.666 247.252 252.346C263.384 243.035 279.642 233.944 295.773 224.63C315.686 213.132 335.484 201.434 355.406 189.951C378.729 176.508 402.171 163.273 425.487 149.82C452.422 134.279 479.247 118.548 506.173 102.994C532.847 87.5854 559.612 72.334 586.295 56.942C616.763 39.3665 647.193 21.7244 677.597 4.03723C678.636 3.43309 679.21 2.03044 680 1C682.371 1.00001 684.741 1.00001 687.556 1.00001Z" fill="#F8BF3C"/>
<path d="M512.333 1284C512.089 1283.61 512.179 1283.23 512.359 1282.13C512.635 1279.11 512.98 1276.81 512.981 1274.5C513.007 1148.04 513.004 1021.57 513.004 895.112C513.004 893.064 513.004 891.016 513.004 887.756C570.508 920.915 626.752 953.347 684 986.358C684 983.062 684 981.102 684 979.143C684 956.483 684.014 933.823 683.997 911.163C683.965 870.509 683.915 829.856 684.23 789.11C685.492 788.605 686.44 788.264 687.298 787.769C743.15 755.527 798.995 723.273 854.841 691.02C854.894 707.175 854.986 723.329 854.993 739.483C855.013 787.624 854.956 835.765 855.086 883.905C855.096 887.712 853.93 889.479 850.505 891.369C834.419 900.247 818.593 909.596 802.698 918.821C788.926 926.814 775.223 934.929 761.423 942.875C745.362 952.122 729.22 961.227 713.133 970.429C705.233 974.949 697.448 979.675 689.47 984.051C686.203 985.843 684.896 987.948 684.904 991.826C685.038 1054.13 684.942 1116.43 685.126 1178.72C685.138 1182.87 683.607 1185.09 680.418 1186.91C659.377 1198.91 638.302 1210.86 617.323 1222.97C594.944 1235.89 572.687 1249.02 550.317 1261.95C538.505 1268.78 526.562 1275.38 514.695 1282.12C514.155 1282.43 513.781 1283.03 513.665 1283.74C513.555 1284 513.111 1284 512.333 1284Z" fill="#ED8E24"/>
<path d="M1 396.469C8.26914 399.971 15.6203 403.8 22.7942 407.937C72.3395 436.505 121.848 465.137 171.669 494.374C171.969 560.28 171.969 625.561 171.969 690.842C165.236 687.313 158.402 683.963 151.792 680.219C137.618 672.19 123.557 663.963 109.456 655.807C95.9135 647.975 82.3731 640.141 68.8416 632.291C52.6275 622.884 36.4301 613.449 20.2123 604.049C14.005 600.451 7.7614 596.916 1.26718 593.676C1 528.312 1 462.625 1 396.469Z" fill="#E55B2D"/>
<path d="M172.335 690.9C171.969 625.561 171.969 560.28 171.973 494.538C186.054 485.853 200.104 477.579 214.217 469.417C245.633 451.246 277.078 433.126 308.518 414.995C344.572 394.202 380.637 373.428 416.69 352.633C449.858 333.501 483.018 314.353 516.18 295.208C554.098 273.316 592.017 251.426 629.929 229.523C645.93 220.279 661.906 210.992 677.912 201.755C679.634 200.76 681.474 199.968 683.624 199.493C683.995 263.026 683.987 326.146 684.051 389.267C684.053 391.87 684.73 394.472 685.093 397.074C685.066 461.715 685.039 526.355 684.732 591.606C669.584 600.734 654.7 609.221 639.855 617.776C608.292 635.966 576.731 654.158 545.211 672.422C534.717 678.503 524.352 684.807 513.697 690.668C513.312 688.182 513.024 686.038 513.023 683.893C512.999 623.119 513.009 562.345 512.982 501.57C512.982 499.549 512.665 497.528 512.439 494.838C509.412 496.397 507.167 497.444 505.027 498.674C497.672 502.902 490.369 507.221 483.019 511.459C440.791 535.802 398.536 560.099 356.347 584.509C351.365 587.391 346.727 590.866 341.929 594.066C336.801 596.757 331.58 599.285 326.563 602.168C309.68 611.869 292.871 621.697 276.033 631.475C252.876 644.924 229.742 658.412 206.551 671.802C195.324 678.284 183.988 684.579 172.335 690.9Z" fill="#ED8E24"/>
<path d="M685.45 397.053C684.731 394.472 684.054 391.87 684.051 389.267C683.987 326.146 683.995 263.026 683.977 199.432C693.001 203.887 702.145 208.631 711.061 213.77C797.226 263.432 883.356 313.155 969.488 362.875C987.81 373.452 1006.1 384.085 1024.79 395.261C1025.44 398.633 1025.9 401.436 1025.91 404.239C1025.95 466.815 1025.95 529.39 1025.68 591.985C1025.24 592.016 1025.06 592.028 1024.88 592.04C1016.47 587.411 1007.99 582.893 999.66 578.13C983.37 568.82 967.161 559.371 950.916 549.983C934.798 540.669 918.673 531.365 902.559 522.043C886.445 512.72 870.356 503.353 854.227 494.055C838.109 484.762 821.943 475.551 805.821 466.267C791.531 458.038 777.282 449.74 762.998 441.502C737.274 426.667 711.538 411.855 685.45 397.053Z" fill="#E55B2D"/>
<path d="M513.929 691.01C524.352 684.807 534.717 678.503 545.211 672.422C576.73 654.158 608.292 635.966 639.855 617.776C654.7 609.221 669.584 600.734 684.771 592.068C695.446 597.954 705.798 603.992 716.154 610.021C732.393 619.473 748.615 628.954 764.882 638.359C778.606 646.293 792.405 654.097 806.13 662.03C822.371 671.418 838.568 680.882 854.813 690.667C798.995 723.273 743.151 755.527 687.299 787.769C686.44 788.264 685.492 788.605 683.905 788.984C645.607 767.275 607.972 745.631 570.381 723.911C551.523 713.015 532.744 701.981 513.929 691.01Z" fill="#F8BF3C"/>
<path d="M1025.95 591.966C1025.95 529.39 1025.95 466.815 1025.91 404.239C1025.9 401.436 1025.44 398.633 1025.1 395.423C1033.32 390.474 1041.7 386.078 1049.91 381.363C1088.73 359.057 1127.51 336.663 1166.3 314.3C1176.25 308.566 1186.19 302.833 1196.48 297.015C1196.87 300.423 1196.99 303.914 1196.99 307.406C1197 366.676 1196.84 425.947 1197.21 485.215C1197.25 492.208 1194.94 495.843 1189.2 499.065C1163.98 513.206 1138.92 527.625 1113.86 542.045C1087.94 556.956 1062.09 571.976 1036.23 586.973C1033.01 588.839 1029.88 590.853 1026.35 592.606C1025.99 592.413 1025.95 591.966 1025.95 591.966Z" fill="#ED8E24"/>
<path d="M1025.68 591.985C1025.95 591.966 1025.99 592.413 1026 592.637C1025.7 592.754 1025.39 592.646 1024.98 592.289C1025.06 592.028 1025.24 592.016 1025.68 591.985Z" fill="#E97429"/>
<path d="M513.697 690.668C532.744 701.981 551.523 713.015 570.381 723.911C607.972 745.631 645.607 767.275 683.548 789.076C683.915 829.856 683.965 870.509 683.997 911.163C684.014 933.823 684 956.483 684 979.143C684 981.102 684 983.062 684 986.358C626.752 953.347 570.508 920.915 513.004 887.756C513.004 891.016 513.004 893.064 513.004 895.112C513.004 1021.57 513.007 1148.04 512.981 1274.5C512.98 1276.81 512.635 1279.11 512.197 1281.75C483.837 1265.82 455.751 1249.5 427.615 1233.28C408.96 1222.52 390.238 1211.87 371.535 1201.2C362.613 1196.1 353.603 1191.16 344.797 1185.87C343.416 1185.04 342.681 1182.83 342.081 1181.11C341.667 1179.92 342 1178.48 342 1177.14C341.996 983.094 341.992 789.045 341.958 594.531C346.726 590.866 351.365 587.391 356.346 584.509C398.536 560.099 440.791 535.802 483.019 511.458C490.369 507.221 497.671 502.902 505.026 498.674C507.166 497.444 509.412 496.397 512.439 494.838C512.665 497.528 512.981 499.549 512.982 501.57C513.009 562.344 512.999 623.119 513.023 683.893C513.024 686.038 513.311 688.182 513.697 690.668Z" fill="#E55B2D"/>
</g>
<defs>
<clipPath id="clip0_27_241">
<rect width="1200" height="1283" fill="white"/>
</clipPath>
</defs>
</svg>
