<svg width="800" height="800" viewBox="0 0 800 800" fill="none" xmlns="http://www.w3.org/2000/svg">
<g clip-path="url(#clip0_25_92)">
<path d="M748 801C498.667 801 249.833 801 1 801C1 534.333 1 267.667 1 1C267.667 1 534.333 1 801 1C801 267.667 801 534.333 801 801C783.5 801 766 801 748 801ZM657.935 371.522C632.553 362.99 606.722 361.96 580.559 367.008C506.918 381.216 473.991 468.195 519.544 528.073C531.287 543.509 546.337 555.074 563.446 563.604C583.062 573.383 603.446 581.613 623.167 591.193C633.121 596.028 642.869 601.651 651.759 608.207C661.099 615.094 664.38 625.563 663.367 637.053C661.9 653.674 651.43 663.401 636.58 667.721C605.554 676.745 577.525 671.08 554.55 647.261C548.469 640.956 543.503 633.575 537.775 626.374C517.959 637.89 497.752 649.634 477.332 661.5C489.567 685.276 506.422 704.084 529.2 716.904C572.302 741.163 618.087 744.237 664.958 730.944C704.119 719.837 735.22 690.525 738.489 642.255C740.637 610.529 733.495 581.735 710.146 558.509C697.843 546.271 683.511 536.842 668.052 529.325C649.68 520.391 630.67 512.766 612.337 503.759C602.28 498.818 592.223 493.192 583.654 486.082C573.342 477.526 571.927 465.048 575.311 452.579C578.563 440.592 587.236 433.414 599.203 430.978C619.053 426.937 636.211 431.739 649.13 448.15C652.484 452.411 655.403 457.014 658.625 461.605C678.063 449.111 697.31 436.739 716.485 424.414C705.234 401.066 683.128 381.092 657.935 371.522ZM436.758 381.516C436.758 377.24 436.758 372.965 436.758 368.552C411.406 368.552 386.692 368.552 361.485 368.552C361.485 370.821 361.485 372.786 361.485 374.75C361.485 456.382 361.523 538.014 361.42 619.646C361.411 626.944 361.025 634.328 359.87 641.521C357.827 654.252 352.057 665.14 338.724 668.521C330.539 670.597 321.545 671.065 313.113 670.234C298.723 668.816 289.451 659.03 281.912 647.541C278.74 642.706 275.8 637.719 272.647 632.628C252.199 645.013 232.038 657.224 211.671 669.56C222.744 692.536 238.154 711.193 260.591 723.008C295.779 741.537 332.751 742.686 370.102 731.246C399.759 722.162 419.382 701.938 429.496 672.572C435.154 656.146 436.743 639.133 436.748 621.908C436.769 542.109 436.758 462.309 436.758 381.516Z" fill="#F7DF1E"/>
<path d="M658.296 371.675C683.128 381.092 705.234 401.066 716.485 424.414C697.31 436.739 678.063 449.111 658.625 461.605C655.403 457.014 652.484 452.411 649.13 448.15C636.211 431.739 619.053 426.937 599.203 430.978C587.236 433.414 578.563 440.592 575.311 452.579C571.927 465.048 573.342 477.526 583.654 486.082C592.223 493.192 602.28 498.818 612.337 503.759C630.67 512.766 649.68 520.391 668.052 529.325C683.511 536.842 697.843 546.271 710.146 558.509C733.495 581.735 740.637 610.529 738.488 642.255C735.22 690.525 704.119 719.837 664.958 730.944C618.087 744.238 572.302 741.163 529.2 716.904C506.422 704.084 489.567 685.277 477.332 661.5C497.751 649.634 517.959 637.89 537.775 626.374C543.503 633.575 548.469 640.956 554.55 647.261C577.525 671.08 605.554 676.745 636.58 667.721C651.43 663.401 661.9 653.674 663.367 637.053C664.38 625.563 661.099 615.094 651.759 608.207C642.869 601.651 633.121 596.028 623.167 591.193C603.446 581.613 583.062 573.383 563.446 563.604C546.337 555.074 531.287 543.509 519.544 528.073C473.991 468.196 506.918 381.216 580.559 367.008C606.722 361.96 632.553 362.99 658.296 371.675Z" fill="#010100"/>
<path d="M436.758 382.013C436.758 462.309 436.769 542.109 436.748 621.908C436.743 639.133 435.154 656.146 429.496 672.572C419.382 701.938 399.758 722.162 370.102 731.246C332.751 742.686 295.779 741.537 260.591 723.008C238.154 711.193 222.744 692.536 211.671 669.561C232.038 657.225 252.198 645.013 272.647 632.628C275.8 637.719 278.74 642.706 281.912 647.541C289.451 659.03 298.723 668.816 313.113 670.234C321.544 671.065 330.538 670.597 338.724 668.521C352.056 665.14 357.827 654.252 359.87 641.521C361.025 634.328 361.411 626.944 361.42 619.646C361.523 538.014 361.485 456.382 361.485 374.75C361.485 372.786 361.485 370.821 361.485 368.552C386.692 368.552 411.406 368.552 436.758 368.552C436.758 372.965 436.758 377.24 436.758 382.013Z" fill="#020200"/>
</g>
<defs>
<clipPath id="clip0_25_92">
<rect width="800" height="800" fill="white"/>
</clipPath>
</defs>
</svg>
